<svg data-v-423bf9ae="" xmlns="http://www.w3.org/2000/svg" viewBox="0 0 311 90" class="iconLeftSlogan"><!----><!----><!----><g data-v-423bf9ae="" id="180d727d-8307-49f2-be15-9eec57a60727" fill="black" transform="matrix(3.6923076923076925,0,0,3.6923076923076925,109.993842718478,1.2923081379670336)"><path d="M6.71 5.43L6.71 5.43L6.71 5.43Q6.82 5.43 6.92 5.52L6.92 5.52L6.92 5.52Q7.01 5.60 7.01 5.81L7.01 5.81L7.01 5.81Q7.01 5.85 7.01 5.94L7.01 5.94L7.01 5.94Q7 6.02 6.97 6.17L6.97 6.17L6.97 6.17Q6.94 6.33 6.89 6.57L6.89 6.57L6.89 6.57Q6.83 6.80 6.73 7.15L6.73 7.15L6.73 7.15Q6.58 7.67 6.43 8.15L6.43 8.15L6.43 8.15Q6.27 8.62 6.10 9.06L6.10 9.06L6.10 9.06Q5.63 10.35 4.96 10.35L4.96 10.35L4.96 10.35Q4.17 10.35 4.00 8.89L4.00 8.89L4.00 8.89Q3.99 8.89 3.99 8.88L3.99 8.88L3.99 8.54L3.99 8.54Q3.89 8.85 3.83 9.05L3.83 9.05L3.83 9.05Q3.77 9.25 3.72 9.35L3.72 9.35L3.72 9.35Q3.35 10.35 2.83 10.35L2.83 10.35L2.83 10.35Q2.70 10.35 2.58 10.30L2.58 10.30L2.58 10.30Q2.45 10.26 2.35 10.14L2.35 10.14L2.35 10.14Q2.24 10.01 2.17 9.79L2.17 9.79L2.17 9.79Q2.10 9.58 2.10 9.24L2.10 9.24L2.10 9.24Q2.10 9.06 2.18 8.05L2.18 8.05L2.18 8.05Q2.21 7.77 2.22 7.52L2.22 7.52L2.22 7.52Q2.23 7.27 2.24 7.04L2.24 7.04L2.24 7.04Q2.20 7.17 2.16 7.41L2.16 7.41L2.16 7.41Q1.85 8.95 1.72 9.37L1.72 9.37L1.72 9.37Q1.34 10.56 0.76 10.56L0.76 10.56L0.76 10.56Q0.53 10.56 0.41 10.39L0.41 10.39L0.41 10.39Q0.28 10.23 0.21 9.99L0.21 9.99L0.21 9.99Q0.14 9.74 0.12 9.45L0.12 9.45L0.12 9.45Q0.10 9.16 0.10 8.88L0.10 8.88L0.10 8.88Q0.10 8.72 0.10 8.48L0.10 8.48L0.10 8.48Q0.11 8.23 0.13 7.88L0.13 7.88L0.13 7.88Q0.14 7.59 0.14 7.38L0.14 7.38L0.14 7.38Q0.14 7.18 0.14 7.04L0.14 7.04L0.03 6.73L0.03 6.73Q0.01 6.72 0.01 6.68L0.01 6.68L0.01 6.68Q-0.04 5.85 0.21 5.57L0.21 5.57L0.21 5.57Q0.35 5.43 0.55 5.43L0.55 5.43L0.55 5.43Q0.63 5.43 0.73 5.46L0.73 5.46L0.73 5.46Q0.84 5.49 0.92 5.57L0.92 5.57L0.92 5.57Q1.01 5.66 1.07 5.81L1.07 5.81L1.07 5.81Q1.13 5.96 1.13 6.22L1.13 6.22L1.13 6.22Q1.13 6.80 1.02 7.32L1.02 7.32L1.02 7.32Q0.92 7.76 0.92 8.40L0.92 8.40L0.92 8.40Q0.92 8.55 0.92 8.70L0.92 8.70L0.92 8.70Q0.92 8.85 0.94 8.99L0.94 8.99L0.94 8.99Q0.97 8.89 0.99 8.80L0.99 8.80L0.99 8.80Q1.02 8.71 1.05 8.61L1.05 8.61L1.05 8.61Q1.22 7.69 1.36 7.08L1.36 7.08L1.36 7.08Q1.50 6.47 1.64 6.12L1.64 6.12L1.64 6.12Q1.67 6.05 1.72 5.92L1.72 5.92L1.72 5.92Q1.78 5.78 1.87 5.65L1.87 5.65L1.87 5.65Q1.96 5.52 2.09 5.42L2.09 5.42L2.09 5.42Q2.23 5.32 2.41 5.32L2.41 5.32L2.41 5.32Q2.52 5.32 2.67 5.39L2.67 5.39L2.67 5.39Q2.81 5.46 2.93 5.70L2.93 5.70L2.93 5.70Q3.07 5.98 3.07 6.54L3.07 6.54L3.07 6.55L3.07 6.55Q3.00 7.20 2.95 7.71L2.95 7.71L2.95 7.71Q2.91 8.22 2.91 8.60L2.91 8.60L2.91 8.60Q2.91 8.75 2.92 8.84L2.92 8.84L2.92 8.84Q2.93 8.93 2.93 9.00L2.93 9.00L2.93 9.00Q3.01 8.89 3.14 8.54L3.14 8.54L3.14 8.54Q3.28 8.19 3.47 7.45L3.47 7.45L3.47 7.45Q3.63 6.87 3.71 6.52L3.71 6.52L3.71 6.52Q3.79 6.16 3.84 5.95L3.84 5.95L3.84 5.95Q3.88 5.74 3.88 5.66L3.88 5.66L3.88 5.66Q3.88 5.59 3.88 5.56L3.88 5.56L3.88 5.49L3.88 5.49Q3.91 5.39 4.00 5.27L4.00 5.27L4.00 5.27Q4.10 5.15 4.40 5.15L4.40 5.15L4.40 5.15Q4.65 5.15 5.08 5.43L5.08 5.43L5.08 5.43Q5.21 5.52 5.17 5.64L5.17 5.64L5.17 5.64Q4.80 7.39 4.80 8.53L4.80 8.53L4.80 8.53Q4.80 8.85 4.82 9.04L4.82 9.04L4.82 9.04Q4.84 9.23 4.87 9.32L4.87 9.32L4.87 9.32Q4.91 9.44 4.96 9.48L4.96 9.48L4.96 9.48Q4.97 9.48 5.02 9.45L5.02 9.45L5.02 9.45Q5.07 9.42 5.16 9.30L5.16 9.30L5.16 9.30Q5.25 9.18 5.38 8.93L5.38 8.93L5.38 8.93Q5.50 8.67 5.66 8.20L5.66 8.20L5.66 8.19L5.66 8.19Q5.67 8.18 5.70 8.09L5.70 8.09L5.70 8.09Q5.73 7.99 5.79 7.77L5.79 7.77L5.79 7.77Q5.85 7.55 5.96 7.15L5.96 7.15L5.96 7.15Q6.06 6.76 6.23 6.15L6.23 6.15L6.23 6.15Q6.26 6.08 6.28 5.99L6.28 5.99L6.28 5.99Q6.30 5.91 6.33 5.82L6.33 5.82L6.36 5.70L6.36 5.68L6.36 5.68Q6.45 5.43 6.71 5.43ZM8.01 4.61L8.01 4.61L8.01 4.61Q8.20 4.61 8.41 4.67L8.41 4.67L8.41 4.67Q8.61 4.73 8.77 4.90L8.77 4.90L8.77 4.90Q8.93 5.07 9.04 5.37L9.04 5.37L9.04 5.37Q9.14 5.67 9.14 6.15L9.14 6.15L9.14 6.15Q9.14 6.89 9.04 7.59L9.04 7.59L9.04 7.59Q8.95 8.30 8.75 8.97L8.75 8.97L8.75 8.97Q8.30 10.56 7.60 10.56L7.60 10.56L7.60 10.56Q7.18 10.56 6.87 9.97L6.87 9.97L6.87 9.97Q6.75 10.09 6.59 10.09L6.59 10.09L6.59 10.09Q6.38 10.09 6.20 9.84L6.20 9.84L6.20 9.84Q6.05 9.60 6.05 9.39L6.05 9.39L6.05 9.39Q6.05 9.30 6.09 9.21L6.09 9.21L6.09 9.21Q6.05 6.97 6.38 4.16L6.38 4.16L6.38 4.16Q6.50 3.26 6.60 2.46L6.60 2.46L6.60 2.46Q6.71 1.67 6.80 0.90L6.80 0.90L6.80 0.90Q6.83 0.57 6.83 0.46L6.83 0.46L6.83 0.46Q6.83 0.35 6.83 0.34L6.83 0.34L6.80 0.25L6.85 0.18L6.85 0.18Q6.89 0.10 7 0.02L7 0.02L7 0.02Q7.11-0.06 7.32-0.06L7.32-0.06L7.42-0.06L7.42-0.06Q7.67-0.06 7.82 0.09L7.82 0.09L7.82 0.09Q7.97 0.24 7.97 0.52L7.97 0.52L7.97 0.52Q7.97 0.57 7.95 0.69L7.95 0.69L7.95 0.69Q7.92 0.81 7.85 1.09L7.85 1.09L7.85 1.09Q7.78 1.36 7.74 1.57L7.74 1.57L7.74 1.57Q7.70 1.78 7.67 1.96L7.67 1.96L7.67 1.96Q7.48 2.98 7.35 3.81L7.35 3.81L7.35 3.81Q7.22 4.65 7.14 5.31L7.14 5.31L7.14 5.31Q7.22 5.15 7.34 4.98L7.34 4.98L7.34 4.98Q7.60 4.61 8.01 4.61ZM7.95 8.86L7.95 8.86L7.95 8.86Q8.27 7.70 8.27 6.43L8.27 6.43L8.27 6.43Q8.27 5.82 8.21 5.62L8.21 5.62L8.21 5.62Q8.15 5.42 8.12 5.39L8.12 5.39L8.12 5.39Q8.09 5.40 8.05 5.46L8.05 5.46L8.05 5.46Q8.01 5.52 7.93 5.66L7.93 5.66L7.93 5.66Q7.85 5.80 7.76 6.03L7.76 6.03L7.76 6.03Q7.66 6.27 7.53 6.65L7.53 6.65L7.53 6.65Q7.29 7.34 7.17 7.93L7.17 7.93L7.17 7.93Q7.06 8.53 7.04 9.03L7.04 9.03L7.04 9.03Q7.18 9.20 7.38 9.51L7.38 9.51L7.38 9.51Q7.43 9.60 7.48 9.62L7.48 9.62L7.48 9.62Q7.52 9.63 7.53 9.63L7.53 9.63L7.53 9.63Q7.59 9.63 7.70 9.47L7.70 9.47L7.70 9.47Q7.81 9.31 7.95 8.86ZM14.27 5.66L14.27 5.66L14.27 5.66Q14.49 5.66 14.49 6.06L14.49 6.06L14.49 6.06Q14.49 6.09 14.48 6.15L14.48 6.15L14.48 6.15Q14.48 6.20 14.43 6.41L14.43 6.41L14.43 6.41Q14.38 6.62 14.27 7.02L14.27 7.02L14.27 7.02Q14.17 7.42 13.97 8.12L13.97 8.12L13.97 8.12Q13.64 9.34 13.54 9.58L13.54 9.58L13.54 9.58Q13.23 10.35 12.70 10.35L12.70 10.35L12.70 10.35Q11.69 10.35 11.52 8.48L11.52 8.48L11.52 8.47L11.51 8.26L11.51 7.27L11.51 7.27Q11.38 7.76 11.20 8.51L11.20 8.51L11.20 8.51Q11.02 9.27 10.75 10.43L10.75 10.43L10.74 10.51L10.67 10.56L10.67 10.56Q10.51 10.65 10.35 10.65L10.35 10.65L10.35 10.65Q9.94 10.65 9.74 10.02L9.74 10.02L9.74 10.02Q9.55 9.38 9.55 8.01L9.55 8.01L9.55 8.01Q9.55 7.64 9.63 6.75L9.63 6.75L9.63 6.75Q9.72 5.87 9.90 4.40L9.90 4.40L9.90 4.40Q10.07 2.95 10.16 2.02L10.16 2.02L10.16 2.02Q10.25 1.09 10.25 0.69L10.25 0.69L10.25 0.22L10.26 0.18L10.26 0.18Q10.32 0.07 10.46-0.04L10.46-0.04L10.46-0.04Q10.60-0.15 10.88-0.15L10.88-0.15L10.92-0.15L10.92-0.15Q11.41-0.13 11.41 0.31L11.41 0.31L11.41 0.31Q11.41 0.57 11.31 0.88L11.31 0.88L11.31 0.88Q11.19 1.25 11.14 1.55L11.14 1.55L11.14 1.55Q10.79 3.72 10.62 5.33L10.62 5.33L10.62 5.33Q10.44 6.94 10.44 8.02L10.44 8.02L10.44 8.02Q10.46 8.05 10.46 8.09L10.46 8.09L10.46 8.09Q10.46 8.13 10.46 8.20L10.46 8.20L10.46 8.20Q10.47 8.26 10.49 8.34L10.49 8.34L10.49 8.37L10.49 8.37Q10.56 8.09 10.65 7.76L10.65 7.76L10.65 7.76Q10.74 7.42 10.85 7.01L10.85 7.01L10.85 7.01Q11.09 6.06 11.23 5.51L11.23 5.51L11.23 5.51Q11.37 4.96 11.40 4.79L11.40 4.79L11.40 4.79Q11.47 4.44 11.61 4.33L11.61 4.33L11.61 4.33Q11.76 4.23 11.90 4.23L11.90 4.23L11.90 4.23Q12.00 4.23 12.16 4.30L12.16 4.30L12.16 4.30Q12.32 4.37 12.67 4.68L12.67 4.68L12.75 4.75L12.74 4.86L12.74 4.86Q12.33 7.01 12.33 8.39L12.33 8.39L12.33 8.39Q12.33 8.85 12.41 9.12L12.41 9.12L12.41 9.12Q12.49 9.39 12.61 9.39L12.61 9.39L12.61 9.39Q12.63 9.39 12.71 9.32L12.71 9.32L12.71 9.32Q12.80 9.24 12.94 8.95L12.94 8.95L12.94 8.95Q13.05 8.71 13.20 8.35L13.20 8.35L13.20 8.35Q13.36 7.99 13.48 7.52L13.48 7.52L13.48 7.52Q13.55 7.27 13.66 6.92L13.66 6.92L13.66 6.92Q13.78 6.58 13.89 6.15L13.89 6.15L13.89 6.15Q13.92 6.03 13.99 5.84L13.99 5.84L13.99 5.84Q14.07 5.66 14.27 5.66ZM23.04 10.04L23.04 10.04L23.04 10.04Q23.04 10.19 22.98 10.37L22.98 10.37L22.98 10.37Q22.92 10.56 22.76 10.56L22.76 10.56L22.76 10.56Q22.61 10.56 22.20 10.56L22.20 10.56L22.20 10.56Q21.78 10.56 21.23 10.56L21.23 10.56L21.23 10.56Q20.68 10.56 20.05 10.55L20.05 10.55L20.05 10.55Q19.42 10.54 18.84 10.53L18.84 10.53L18.84 10.53Q18.13 10.51 17.77 10.50L17.77 10.50L17.77 10.50Q17.42 10.49 17.12 10.48L17.12 10.48L17.12 10.48Q16.81 10.47 16.39 10.47L16.39 10.47L16.39 10.47Q15.96 10.47 15.11 10.47L15.11 10.47L15.11 10.47Q14.98 10.47 14.85 10.35L14.85 10.35L14.85 10.35Q14.71 10.22 14.71 9.94L14.71 9.94L14.71 9.94Q14.71 9.55 14.81 9.46L14.81 9.46L14.81 9.46Q14.91 9.37 15.04 9.37L15.04 9.37L15.04 9.37Q15.08 9.38 15.13 9.38L15.13 9.38L15.13 9.38Q15.18 9.38 15.22 9.38L15.22 9.38L15.22 9.38Q15.34 9.39 15.65 9.40L15.65 9.40L15.65 9.40Q15.96 9.41 16.37 9.41L16.37 9.41L16.37 9.41Q16.77 9.42 17.22 9.44L17.22 9.44L17.22 9.44Q17.67 9.45 18.07 9.46L18.07 9.46L18.07 9.46Q18.47 9.46 18.77 9.47L18.77 9.47L18.77 9.47Q19.07 9.48 19.17 9.48L19.17 9.48L19.17 9.48Q19.49 9.48 19.95 9.48L19.95 9.48L19.95 9.48Q20.41 9.49 20.90 9.49L20.90 9.49L20.90 9.49Q21.39 9.49 21.83 9.48L21.83 9.48L21.83 9.48Q22.27 9.48 22.55 9.46L22.55 9.46L22.55 9.46Q22.57 9.46 22.65 9.46L22.65 9.46L22.65 9.46Q22.74 9.46 22.82 9.52L22.82 9.52L22.82 9.52Q22.90 9.58 22.97 9.70L22.97 9.70L22.97 9.70Q23.04 9.81 23.04 10.04ZM27.24 4.86L27.24 4.87L27.24 4.87Q27.57 5.25 27.57 6.16L27.57 6.16L27.57 6.16Q27.57 8.12 27.09 9.32L27.09 9.32L27.09 9.32Q26.57 10.63 25.72 10.63L25.72 10.63L25.72 10.63Q25.33 10.63 25.05 10.22L25.05 10.22L25.05 10.22Q25.03 10.19 25.02 10.19L25.02 10.19L25.02 10.19Q25.02 10.18 25.00 10.15L25.00 10.15L25.00 10.15Q24.79 11.49 24.79 13.17L24.79 13.17L24.79 13.17Q24.79 13.50 24.82 13.77L24.82 13.77L24.82 13.77Q24.84 14.04 24.86 14.25L24.86 14.25L24.86 14.25Q24.91 14.50 24.98 14.70L24.98 14.70L24.98 14.70Q25.03 14.80 25.03 14.83L25.03 14.83L25.03 14.83Q25.06 14.85 25.06 14.94L25.06 14.94L25.06 14.94Q25.06 15.01 25.02 15.08L25.02 15.08L25.02 15.08Q24.98 15.15 24.86 15.18L24.86 15.18L24.86 15.18Q24.82 15.19 24.65 15.19L24.65 15.19L24.65 15.19Q24.51 15.19 24.35 15.08L24.35 15.08L24.35 15.08Q24.18 14.97 24.07 14.60L24.07 14.60L24.07 14.60Q24.00 14.36 23.96 14.02L23.96 14.02L23.96 14.02Q23.93 13.68 23.93 13.20L23.93 13.20L23.93 13.20Q23.93 12.53 24.02 11.47L24.02 11.47L24.02 11.47Q24.11 10.42 24.28 8.97L24.28 8.97L24.28 8.97Q24.44 7.66 24.53 6.69L24.53 6.69L24.53 6.69Q24.61 5.73 24.60 5.11L24.60 5.11L24.60 5.11Q24.51 5.01 24.51 4.89L24.51 4.89L24.51 4.89Q24.51 4.73 24.62 4.61L24.62 4.61L24.62 4.61Q24.72 4.49 24.96 4.49L24.96 4.49L24.96 4.49Q25.02 4.49 25.10 4.51L25.10 4.51L25.10 4.51Q25.19 4.54 25.26 4.60L25.26 4.60L25.26 4.60Q25.34 4.66 25.40 4.78L25.40 4.78L25.40 4.78Q25.45 4.90 25.45 5.11L25.45 5.11L25.45 5.11Q25.45 5.18 25.45 5.26L25.45 5.26L25.45 5.26Q25.45 5.33 25.42 5.45L25.42 5.45L25.42 5.45Q25.41 5.52 25.40 5.54L25.40 5.54L25.40 5.54Q25.40 5.57 25.40 5.60L25.40 5.60L25.40 5.60Q25.47 5.46 25.52 5.33L25.52 5.33L25.52 5.33Q25.56 5.21 25.63 5.10L25.63 5.10L25.63 5.10Q25.83 4.77 25.96 4.63L25.96 4.63L25.96 4.63Q26.08 4.49 26.22 4.49L26.22 4.49L26.22 4.49Q26.91 4.49 27.24 4.86L27.24 4.86ZM26.71 7.11L26.71 6.19L26.71 6.19Q26.71 6.08 26.70 5.92L26.70 5.92L26.70 5.92Q26.70 5.75 26.66 5.60L26.66 5.60L26.66 5.60Q26.63 5.45 26.57 5.33L26.57 5.33L26.57 5.33Q26.52 5.22 26.42 5.22L26.42 5.22L26.42 5.22Q26.40 5.22 26.36 5.26L26.36 5.26L26.36 5.26Q26.32 5.31 26.25 5.46L26.25 5.46L26.25 5.47L26.25 5.47Q26.24 5.49 26.18 5.65L26.18 5.65L26.18 5.65Q26.12 5.81 25.93 6.31L25.93 6.31L25.93 6.31Q25.52 7.35 25.38 7.90L25.38 7.90L25.38 7.90Q25.24 8.44 25.23 8.67L25.23 8.67L25.23 8.67Q25.35 8.74 25.45 8.83L25.45 8.83L25.45 8.83Q25.54 8.92 25.54 9.04L25.54 9.04L25.54 9.04Q25.54 9.14 25.49 9.21L25.49 9.21L25.49 9.21Q25.44 9.27 25.41 9.30L25.41 9.30L25.41 9.30Q25.40 9.30 25.40 9.31L25.40 9.31L25.40 9.31Q25.40 9.39 25.42 9.47L25.42 9.47L25.42 9.47Q25.45 9.55 25.49 9.63L25.49 9.63L25.49 9.65L25.49 9.65Q25.56 9.79 25.63 9.81L25.63 9.81L25.63 9.81Q25.69 9.84 25.76 9.84L25.76 9.84L25.76 9.84Q25.83 9.84 25.99 9.70L25.99 9.70L25.99 9.70Q26.15 9.56 26.38 8.97L26.38 8.97L26.38 8.97Q26.53 8.51 26.62 8.05L26.62 8.05L26.62 8.05Q26.71 7.59 26.71 7.11L26.71 7.11ZM32.21 5.53L32.21 5.53L32.21 5.53Q32.27 5.53 32.40 5.59L32.40 5.59L32.40 5.59Q32.54 5.66 32.54 5.95L32.54 5.95L32.54 5.95Q32.54 6.44 31.95 8.29L31.95 8.29L31.95 8.29Q31.71 8.99 31.53 9.41L31.53 9.41L31.53 9.41Q31.35 9.83 31.20 10.05L31.20 10.05L31.20 10.05Q31.05 10.28 30.93 10.35L30.93 10.35L30.93 10.35Q30.81 10.42 30.72 10.42L30.72 10.42L30.72 10.42Q30.14 10.42 29.78 9.77L29.78 9.77L29.78 9.77Q29.72 9.70 29.67 9.49L29.67 9.49L29.67 9.49Q29.62 9.28 29.60 8.76L29.60 8.76L29.60 7.69L29.60 6.48L29.60 6.48Q29.60 6.45 29.54 6.35L29.54 6.35L29.54 6.35Q29.48 6.24 29.23 6.08L29.23 6.08L29.23 6.08Q29.15 6.52 28.90 7.39L28.90 7.39L28.90 7.39Q28.90 7.43 28.81 7.60L28.81 7.60L28.81 7.60Q28.78 7.66 28.77 7.69L28.77 7.69L28.77 7.69Q28.76 7.71 28.74 7.73L28.74 7.73L28.74 7.73Q28.74 7.78 28.67 7.83L28.67 7.83L28.67 7.83Q28.60 7.90 28.50 7.85L28.50 7.85L28.29 7.80L28.29 7.80Q28.14 7.74 28.14 7.60L28.14 7.60L28.14 7.60Q28.14 7.59 28.14 7.55L28.14 7.55L28.14 7.55Q28.14 7.52 28.16 7.43L28.16 7.43L28.16 7.43Q28.18 7.34 28.22 7.17L28.22 7.17L28.22 7.17Q28.27 7 28.35 6.71L28.35 6.71L28.35 6.71Q28.53 6.02 28.53 5.60L28.53 5.60L28.53 5.60Q28.53 5.57 28.52 5.47L28.52 5.47L28.52 5.47Q28.50 5.36 28.43 5.17L28.43 5.17L28.43 5.17Q28.29 4.83 28.29 4.56L28.29 4.56L28.29 4.56Q28.29 4.27 28.35 4.09L28.35 4.09L28.35 4.09Q28.41 3.91 28.49 3.80L28.49 3.80L28.49 3.80Q28.57 3.70 28.68 3.65L28.68 3.65L28.68 3.65Q28.78 3.61 28.88 3.61L28.88 3.61L28.88 3.61Q28.94 3.61 29.02 3.63L29.02 3.63L29.02 3.63Q29.11 3.65 29.18 3.72L29.18 3.72L29.18 3.72Q29.26 3.79 29.32 3.93L29.32 3.93L29.32 3.93Q29.39 4.06 29.40 4.27L29.40 4.27L29.40 4.27Q29.41 4.41 29.37 4.76L29.37 4.76L29.37 4.76Q29.34 4.96 29.34 5.05L29.34 5.05L29.34 5.05Q29.34 5.15 29.34 5.21L29.34 5.21L29.34 5.21Q29.36 5.24 29.46 5.31L29.46 5.31L29.46 5.31Q29.55 5.38 29.86 5.53L29.86 5.53L29.86 5.53Q30.62 5.89 30.62 6.47L30.62 6.47L30.62 6.47Q30.62 6.50 30.61 6.57L30.61 6.57L30.61 6.57Q30.60 6.65 30.60 6.80L30.60 6.80L30.60 6.80Q30.59 6.96 30.56 7.22L30.56 7.22L30.56 7.22Q30.53 7.49 30.49 7.91L30.49 7.91L30.49 7.91Q30.46 8.20 30.44 8.40L30.44 8.40L30.44 8.40Q30.42 8.60 30.41 8.72L30.41 8.72L30.41 8.72Q30.39 8.85 30.39 8.93L30.39 8.93L30.39 8.93Q30.38 9.02 30.38 9.10L30.38 9.10L30.38 9.10Q30.38 9.44 30.45 9.52L30.45 9.52L30.45 9.52Q30.52 9.60 30.59 9.60L30.59 9.60L30.59 9.60Q30.60 9.59 30.65 9.53L30.65 9.53L30.65 9.53Q30.70 9.46 30.78 9.30L30.78 9.30L30.78 9.30Q30.86 9.14 30.96 8.87L30.96 8.87L30.96 8.87Q31.07 8.60 31.22 8.16L31.22 8.16L31.22 8.16Q31.70 6.79 31.81 6.05L31.81 6.05L31.81 6.05Q31.85 5.73 31.98 5.63L31.98 5.63L31.98 5.63Q32.10 5.53 32.21 5.53ZM35.90 5.53L35.90 5.53L35.90 5.53Q36.23 5.53 36.23 5.87L36.23 5.87L36.23 5.87Q36.23 6.23 36.13 6.64L36.13 6.64L36.13 6.64Q36.04 7.06 35.83 7.52L35.83 7.52L35.83 7.52Q35.42 8.43 34.73 8.43L34.73 8.43L34.73 8.43Q34.69 8.43 34.62 8.41L34.62 8.41L34.62 8.41Q34.55 8.39 34.36 8.32L34.36 8.32L34.36 8.32Q34.33 8.46 34.29 8.60L34.29 8.60L34.29 8.60Q34.26 8.75 34.22 8.92L34.22 8.92L34.22 8.95L34.22 8.95Q34.09 9.31 33.99 9.55L33.99 9.55L33.99 9.55Q33.89 9.79 33.81 9.93L33.81 9.93L33.81 9.93Q33.45 10.51 32.90 10.51L32.90 10.51L32.90 10.51Q32.23 10.51 31.91 9.84L31.91 9.84L31.91 9.84Q31.61 9.24 31.61 8.06L31.61 8.06L31.61 8.06Q31.61 6.66 31.84 6.12L31.84 6.12L31.84 6.03L31.84 6.03Q31.82 5.95 31.82 5.89L31.82 5.89L31.82 5.89Q31.82 5.82 31.82 5.77L31.82 5.77L31.82 5.75L31.82 5.75Q31.85 5.54 31.93 5.46L31.93 5.46L31.93 5.46Q31.95 5.40 31.98 5.28L31.98 5.28L31.98 5.28Q32.00 5.15 32.07 4.87L32.07 4.87L32.07 4.87Q32.12 4.66 32.21 4.54L32.21 4.54L32.21 4.54Q32.30 4.41 32.40 4.34L32.40 4.34L32.40 4.34Q32.49 4.27 32.59 4.25L32.59 4.25L32.59 4.25Q32.69 4.23 32.77 4.23L32.77 4.23L32.77 4.23Q33.21 4.23 33.70 4.59L33.70 4.59L33.70 4.59Q34.19 4.94 34.34 5.38L34.34 5.38L34.34 5.38Q34.36 5.43 34.38 5.54L34.38 5.54L34.38 5.54Q34.40 5.66 34.41 5.89L34.41 5.89L34.41 5.89Q34.43 6.12 34.44 6.51L34.44 6.51L34.44 6.51Q34.45 6.90 34.45 7.50L34.45 7.50L34.45 7.50Q34.52 7.56 34.62 7.56L34.62 7.56L34.62 7.56Q34.75 7.56 34.91 7.49L34.91 7.49L34.91 7.49Q35.07 7.42 35.22 7.10L35.22 7.10L35.22 7.10Q35.25 7.01 35.33 6.77L35.33 6.77L35.33 6.77Q35.41 6.52 35.53 5.95L35.53 5.95L35.53 5.95Q35.62 5.53 35.90 5.53ZM33.24 9.17L33.24 9.17L33.24 9.17Q33.45 8.71 33.51 8.45L33.51 8.45L33.51 8.45Q33.57 8.19 33.57 8.08L33.57 8.08L33.57 8.08Q33.57 7.88 33.54 7.62L33.54 7.62L33.54 7.62Q33.52 7.35 33.46 7.03L33.46 7.03L33.46 7.03Q33.38 6.58 33.35 6.41L33.35 6.41L33.35 6.41Q33.33 6.24 33.33 6.17L33.33 6.17L33.33 6.17Q33.33 6.10 33.33 6.02L33.33 6.02L33.33 6.02Q33.33 5.94 33.36 5.82L33.36 5.82L33.36 5.82Q33.38 5.71 33.38 5.63L33.38 5.63L33.38 5.63Q33.38 5.56 33.38 5.52L33.38 5.52L33.38 5.52Q33.38 5.32 33.31 5.26L33.31 5.26L33.31 5.26Q33.24 5.19 33.12 5.19L33.12 5.19L33.12 5.19Q33.11 5.21 33.07 5.26L33.07 5.26L33.07 5.26Q33.04 5.32 32.99 5.45L32.99 5.45L32.99 5.45Q32.94 5.59 32.88 5.82L32.88 5.82L32.88 5.82Q32.82 6.06 32.75 6.44L32.75 6.44L32.75 6.44Q32.63 7.03 32.58 7.47L32.58 7.47L32.58 7.47Q32.52 7.91 32.52 8.23L32.52 8.23L32.52 8.23Q32.52 8.43 32.54 8.67L32.54 8.67L32.54 8.67Q32.55 8.90 32.60 9.12L32.60 9.12L32.60 9.12Q32.65 9.34 32.73 9.48L32.73 9.48L32.73 9.48Q32.82 9.63 32.96 9.65L32.96 9.65L32.96 9.65Q32.98 9.62 33.05 9.53L33.05 9.53L33.05 9.53Q33.11 9.44 33.24 9.17ZM38.67 2.66L38.67 2.66L38.67 2.66Q38.86 2.69 38.86 2.87L38.86 2.87L38.86 2.97L38.86 2.97Q38.86 3.04 38.82 3.09L38.82 3.09L38.82 3.09Q38.78 3.15 38.64 3.21L38.64 3.21L38.64 3.21Q38.50 3.26 38.01 3.35L38.01 3.35L38.01 3.35Q37.69 3.42 37.48 3.43L37.48 3.43L37.48 3.43Q37.27 3.44 37.11 3.44L37.11 3.44L36.68 3.47L36.68 3.47Q36.65 3.67 36.62 4.09L36.62 4.09L36.62 4.09Q36.58 4.52 36.51 5.15L36.51 5.15L36.51 5.15Q36.46 5.68 36.43 6.02L36.43 6.02L36.43 6.02Q36.40 6.36 36.38 6.55L36.38 6.55L36.38 6.55Q36.36 6.75 36.35 6.83L36.35 6.83L36.35 6.83Q36.34 6.92 36.34 6.94L36.34 6.94L36.34 6.94Q36.34 7.62 36.35 8.03L36.35 8.03L36.35 8.03Q36.36 8.44 36.37 8.60L36.37 8.60L36.37 8.60Q36.41 9.04 36.49 9.18L36.49 9.18L36.49 9.18Q36.57 9.32 36.60 9.32L36.60 9.32L36.60 9.32Q36.65 9.30 36.71 9.23L36.71 9.23L36.71 9.23Q36.76 9.16 36.84 9.03L36.84 9.03L36.84 9.03Q36.92 8.90 37.03 8.67L37.03 8.67L37.03 8.67Q37.18 8.29 37.36 7.71L37.36 7.71L37.36 7.71Q37.53 7.13 37.72 6.36L37.72 6.36L37.72 6.36Q37.76 6.17 37.80 6.05L37.80 6.05L37.80 6.05Q37.84 5.92 37.87 5.82L37.87 5.82L37.87 5.82Q37.90 5.75 37.96 5.64L37.96 5.64L37.96 5.64Q38.02 5.53 38.16 5.53L38.16 5.53L38.16 5.53Q38.29 5.53 38.40 5.62L38.40 5.62L38.40 5.62Q38.51 5.71 38.51 5.95L38.51 5.95L38.51 5.95Q38.51 6.22 38.39 6.75L38.39 6.75L38.39 6.75Q38.26 7.29 37.98 8.13L37.98 8.13L37.98 8.13Q37.62 9.21 37.27 9.72L37.27 9.72L37.27 9.72Q36.93 10.23 36.55 10.23L36.55 10.23L36.55 10.23Q36.02 10.23 35.70 9.42L35.70 9.42L35.70 9.42Q35.42 8.69 35.42 7.62L35.42 7.62L35.42 7.62Q35.42 7.27 35.51 6.27L35.51 6.27L35.51 6.27Q35.60 5.28 35.80 3.50L35.80 3.50L35.80 3.50Q35.67 3.53 35.56 3.49L35.56 3.49L35.56 3.49Q35.45 3.46 35.41 3.43L35.41 3.43L35.41 3.43Q35.38 3.42 35.34 3.37L35.34 3.37L35.34 3.37Q35.29 3.33 35.18 3.29L35.18 3.29L35.18 3.29Q34.99 3.22 34.94 3.12L34.94 3.12L34.94 3.12Q34.89 3.01 34.89 2.94L34.89 2.94L34.89 2.94Q34.89 2.90 34.94 2.79L34.94 2.79L34.94 2.79Q34.99 2.69 35.27 2.63L35.27 2.63L35.27 2.63Q35.35 2.62 35.41 2.61L35.41 2.61L35.41 2.61Q35.46 2.60 35.52 2.60L35.52 2.60L35.52 2.60Q35.57 2.59 35.65 2.58L35.65 2.58L35.65 2.58Q35.73 2.58 35.85 2.56L35.85 2.56L35.85 2.56Q35.87 2.41 35.88 2.18L35.88 2.18L35.88 2.18Q35.90 1.96 35.91 1.67L35.91 1.67L35.84 1.43L35.84 1.43Q35.84 1.34 35.85 1.30L35.85 1.30L35.85 1.30Q35.97 1.08 36.20 1.08L36.20 1.08L36.20 1.08Q36.46 1.08 36.92 1.37L36.92 1.37L36.92 1.37Q37.00 1.44 37.00 1.54L37.00 1.54L37.00 1.86L37.00 1.90L37.00 1.90Q36.97 2.06 36.94 2.22L36.94 2.22L36.94 2.22Q36.90 2.38 36.86 2.58L36.86 2.58L36.86 2.58Q36.96 2.58 36.98 2.58L36.98 2.58L36.98 2.58Q37.00 2.58 37.02 2.58L37.02 2.58L37.02 2.58Q37.03 2.59 37.09 2.60L37.09 2.60L37.09 2.60Q37.14 2.60 37.34 2.60L37.34 2.60L37.34 2.60Q37.52 2.60 37.63 2.61L37.63 2.61L37.63 2.61Q37.73 2.62 37.85 2.63L37.85 2.63L37.85 2.63Q37.97 2.63 38.15 2.64L38.15 2.64L38.15 2.64Q38.33 2.65 38.67 2.66ZM41.27 6.13L41.27 6.13L41.27 6.13Q41.27 6.20 41.22 6.41L41.22 6.41L41.22 6.41Q41.16 6.62 41.02 7.17L41.02 7.17L41.02 7.17Q40.87 7.78 40.75 8.15L40.75 8.15L40.75 8.15Q40.64 8.51 40.59 8.67L40.59 8.67L40.59 8.67Q40.47 9.00 40.27 9.39L40.27 9.39L40.27 9.39Q40.07 9.79 39.84 9.95L39.84 9.95L39.84 9.95Q39.77 10.02 39.75 10.04L39.75 10.04L39.75 10.04Q39.72 10.07 39.55 10.14L39.55 10.14L39.55 10.14Q39.75 10.98 39.80 11.57L39.80 11.57L39.80 11.57Q39.84 12.17 39.84 12.67L39.84 12.67L39.84 12.67Q39.80 14.78 39.26 15.69L39.26 15.69L39.24 15.69L39.24 15.69Q39.14 15.85 38.96 15.88L38.96 15.88L38.96 15.88Q38.78 15.90 38.71 15.90L38.71 15.90L38.71 15.90Q38.23 15.88 37.95 15.57L37.95 15.57L37.95 15.57Q37.30 14.91 37.38 12.82L37.38 12.82L37.38 12.82Q37.55 6.72 38.63 0.62L38.63 0.62L38.64 0.53L38.70 0.49L38.70 0.49Q38.86 0.34 39.28 0.34L39.28 0.34L39.28 0.34Q39.59 0.34 39.87 0.59L39.87 0.59L40.00 0.70L39.89 0.84L39.89 0.84Q39.54 1.36 39.40 2.10L39.40 2.10L39.40 2.10Q39.07 3.86 38.85 5.36L38.85 5.36L38.85 5.36Q38.63 6.86 38.51 8.09L38.51 8.09L38.51 8.09Q38.82 8.23 39.03 8.64L39.03 8.64L39.03 8.64Q39.05 8.67 39.09 8.76L39.09 8.76L39.09 8.76Q39.14 8.86 39.30 9.25L39.30 9.25L39.30 9.25Q39.37 9.23 39.51 9.06L39.51 9.06L39.51 9.06Q39.65 8.90 39.89 8.44L39.89 8.44L39.89 8.44Q40.03 8.15 40.12 7.93L40.12 7.93L40.12 7.93Q40.22 7.71 40.30 7.50L40.30 7.50L40.30 7.50Q40.38 7.28 40.46 7.04L40.46 7.04L40.46 7.04Q40.54 6.79 40.66 6.45L40.66 6.45L40.66 6.45Q40.68 6.34 40.71 6.25L40.71 6.25L40.71 6.25Q40.74 6.16 40.77 6.06L40.77 6.06L40.77 6.06Q40.84 5.85 40.94 5.78L40.94 5.78L40.94 5.78Q41.03 5.71 41.12 5.71L41.12 5.71L41.12 5.71Q41.24 5.71 41.26 5.80L41.26 5.80L41.26 5.80Q41.27 5.89 41.27 6.13ZM38.86 14.52L38.86 14.52L38.86 14.52Q39.06 13.83 39.09 12.96L39.09 12.96L39.09 12.96Q39.13 11.16 38.71 10.01L38.71 10.01L38.71 10.01Q38.64 9.97 38.57 9.91L38.57 9.91L38.57 9.91Q38.50 9.86 38.43 9.80L38.43 9.80L38.43 9.80Q38.36 10.71 38.31 11.48L38.31 11.48L38.31 11.48Q38.26 12.25 38.25 12.88L38.25 12.88L38.25 12.88Q38.22 13.80 38.42 14.52L38.42 14.52L38.42 14.52Q38.49 14.81 38.53 14.95L38.53 14.95L38.53 14.95Q38.58 15.08 38.61 15.11L38.61 15.11L38.61 15.11Q38.65 15.06 38.72 14.93L38.72 14.93L38.72 14.93Q38.78 14.80 38.86 14.52ZM44.76 5.53L44.76 5.53L44.76 5.53Q45.09 5.53 45.09 5.87L45.09 5.87L45.09 5.87Q45.09 6.23 45.00 6.64L45.00 6.64L45.00 6.64Q44.90 7.06 44.69 7.52L44.69 7.52L44.69 7.52Q44.28 8.43 43.60 8.43L43.60 8.43L43.60 8.43Q43.55 8.43 43.48 8.41L43.48 8.41L43.48 8.41Q43.41 8.39 43.22 8.32L43.22 8.32L43.22 8.32Q43.19 8.46 43.15 8.60L43.15 8.60L43.15 8.60Q43.12 8.75 43.08 8.92L43.08 8.92L43.08 8.95L43.08 8.95Q42.95 9.31 42.85 9.55L42.85 9.55L42.85 9.55Q42.76 9.79 42.67 9.93L42.67 9.93L42.67 9.93Q42.31 10.51 41.76 10.51L41.76 10.51L41.76 10.51Q41.09 10.51 40.77 9.84L40.77 9.84L40.77 9.84Q40.47 9.24 40.47 8.06L40.47 8.06L40.47 8.06Q40.47 6.66 40.70 6.12L40.70 6.12L40.70 6.03L40.70 6.03Q40.68 5.95 40.68 5.89L40.68 5.89L40.68 5.89Q40.68 5.82 40.68 5.77L40.68 5.77L40.68 5.75L40.68 5.75Q40.71 5.54 40.80 5.46L40.80 5.46L40.80 5.46Q40.81 5.40 40.84 5.28L40.84 5.28L40.84 5.28Q40.87 5.15 40.94 4.87L40.94 4.87L40.94 4.87Q40.98 4.66 41.07 4.54L41.07 4.54L41.07 4.54Q41.16 4.41 41.26 4.34L41.26 4.34L41.26 4.34Q41.36 4.27 41.45 4.25L41.45 4.25L41.45 4.25Q41.55 4.23 41.64 4.23L41.64 4.23L41.64 4.23Q42.07 4.23 42.56 4.59L42.56 4.59L42.56 4.59Q43.05 4.94 43.20 5.38L43.20 5.38L43.20 5.38Q43.22 5.43 43.24 5.54L43.24 5.54L43.24 5.54Q43.26 5.66 43.27 5.89L43.27 5.89L43.27 5.89Q43.29 6.12 43.30 6.51L43.30 6.51L43.30 6.51Q43.32 6.90 43.32 7.50L43.32 7.50L43.32 7.50Q43.39 7.56 43.48 7.56L43.48 7.56L43.48 7.56Q43.61 7.56 43.77 7.49L43.77 7.49L43.77 7.49Q43.93 7.42 44.09 7.10L44.09 7.10L44.09 7.10Q44.11 7.01 44.19 6.77L44.19 6.77L44.19 6.77Q44.27 6.52 44.39 5.95L44.39 5.95L44.39 5.95Q44.48 5.53 44.76 5.53ZM42.10 9.17L42.10 9.17L42.10 9.17Q42.31 8.71 42.37 8.45L42.37 8.45L42.37 8.45Q42.43 8.19 42.43 8.08L42.43 8.08L42.43 8.08Q42.43 7.88 42.41 7.62L42.41 7.62L42.41 7.62Q42.38 7.35 42.32 7.03L42.32 7.03L42.32 7.03Q42.24 6.58 42.22 6.41L42.22 6.41L42.22 6.41Q42.20 6.24 42.20 6.17L42.20 6.17L42.20 6.17Q42.20 6.10 42.20 6.02L42.20 6.02L42.20 6.02Q42.20 5.94 42.22 5.82L42.22 5.82L42.22 5.82Q42.24 5.71 42.24 5.63L42.24 5.63L42.24 5.63Q42.24 5.56 42.24 5.52L42.24 5.52L42.24 5.52Q42.24 5.32 42.17 5.26L42.17 5.26L42.17 5.26Q42.10 5.19 41.99 5.19L41.99 5.19L41.99 5.19Q41.97 5.21 41.94 5.26L41.94 5.26L41.94 5.26Q41.90 5.32 41.85 5.45L41.85 5.45L41.85 5.45Q41.80 5.59 41.74 5.82L41.74 5.82L41.74 5.82Q41.68 6.06 41.61 6.44L41.61 6.44L41.61 6.44Q41.50 7.03 41.44 7.47L41.44 7.47L41.44 7.47Q41.38 7.91 41.38 8.23L41.38 8.23L41.38 8.23Q41.38 8.43 41.40 8.67L41.40 8.67L41.40 8.67Q41.41 8.90 41.46 9.12L41.46 9.12L41.46 9.12Q41.51 9.34 41.59 9.48L41.59 9.48L41.59 9.48Q41.68 9.63 41.82 9.65L41.82 9.65L41.82 9.65Q41.85 9.62 41.91 9.53L41.91 9.53L41.91 9.53Q41.97 9.44 42.10 9.17ZM47.81 5.45L47.81 5.45L47.81 5.45Q47.82 5.45 47.88 5.45L47.88 5.45L47.88 5.45Q47.94 5.46 48.00 5.50L48.00 5.50L48.00 5.50Q48.06 5.54 48.10 5.63L48.10 5.63L48.10 5.63Q48.15 5.71 48.15 5.87L48.15 5.87L48.15 5.87Q48.15 6.19 47.99 6.78L47.99 6.78L47.99 6.78Q47.84 7.36 47.53 8.26L47.53 8.26L47.53 8.26Q47.15 9.41 46.77 9.95L46.77 9.95L46.77 9.95Q46.38 10.49 45.96 10.49L45.96 10.49L45.96 10.49Q45.30 10.49 44.80 9.74L44.80 9.74L44.80 9.74Q44.24 8.89 44.24 7.39L44.24 7.39L44.24 7.39Q44.24 6.72 44.32 5.84L44.32 5.84L44.32 5.84Q44.39 4.97 44.55 3.88L44.55 3.88L44.55 3.88Q44.87 1.78 45.18 0.84L45.18 0.84L45.18 0.84Q45.22 0.29 45.36 0.03L45.36 0.03L45.36 0.03Q45.47-0.21 45.63-0.28L45.63-0.28L45.63-0.28Q45.78-0.35 45.89-0.35L45.89-0.35L45.89-0.35Q46.09-0.35 46.30-0.28L46.30-0.28L46.30-0.28Q46.51-0.21 46.68-0.02L46.68-0.02L46.68-0.02Q46.86 0.17 46.97 0.50L46.97 0.50L46.97 0.50Q47.08 0.83 47.08 1.36L47.08 1.36L47.08 1.36Q47.08 2.67 46.58 4.35L46.58 4.35L46.58 4.35Q46.07 6.06 45.40 7.08L45.40 7.08L45.40 7.08Q45.37 7.13 45.35 7.17L45.35 7.17L45.35 7.17Q45.32 7.22 45.25 7.29L45.25 7.29L45.25 7.29Q45.15 7.42 45.12 7.49L45.12 7.49L45.12 7.49Q45.09 7.55 45.09 7.62L45.09 7.62L45.09 7.62Q45.09 8.62 45.54 9.20L45.54 9.20L45.54 9.20Q45.72 9.44 45.83 9.50L45.83 9.50L45.83 9.50Q45.93 9.56 45.99 9.56L45.99 9.56L45.99 9.56Q46.05 9.55 46.10 9.48L46.10 9.48L46.10 9.48Q46.16 9.41 46.24 9.29L46.24 9.29L46.24 9.29Q46.33 9.17 46.44 8.93L46.44 8.93L46.44 8.93Q46.79 8.19 47.21 6.76L47.21 6.76L47.21 6.76Q47.26 6.54 47.31 6.33L47.31 6.33L47.31 6.33Q47.36 6.12 47.42 5.91L47.42 5.91L47.42 5.91Q47.45 5.80 47.53 5.62L47.53 5.62L47.53 5.62Q47.61 5.45 47.81 5.45ZM46.17 1.06L46.17 1.06L46.17 1.06Q45.75 2.49 45.49 3.65L45.49 3.65L45.49 3.65Q45.23 4.80 45.15 5.71L45.15 5.71L45.15 5.71Q45.30 5.36 45.46 4.95L45.46 4.95L45.46 4.95Q45.61 4.54 45.77 4.05L45.77 4.05L45.77 4.05Q46.21 2.51 46.21 1.78L46.21 1.78L46.21 1.78Q46.21 1.32 46.17 1.06ZM49.20 9.66L49.20 9.66L49.20 9.66Q48.83 10.44 48.30 10.44L48.30 10.44L48.30 10.44Q48.12 10.44 47.90 10.35L47.90 10.35L47.90 10.35Q47.68 10.25 47.49 9.93L47.49 9.93L47.49 9.93Q47.36 9.69 47.29 9.40L47.29 9.40L47.29 9.40Q47.22 9.11 47.22 8.75L47.22 8.75L47.22 8.75Q47.22 8.44 47.35 7.07L47.35 7.07L47.35 7.07Q47.42 6.40 47.45 5.99L47.45 5.99L47.45 5.99Q47.47 5.57 47.47 5.43L47.47 5.43L47.47 5.43Q47.47 5.29 47.47 5.22L47.47 5.22L47.47 5.22Q47.47 5.15 47.52 5.12L47.52 5.12L47.52 5.12Q47.56 5.10 47.66 5.11L47.66 5.11L47.66 5.11Q47.77 5.12 47.98 5.17L47.98 5.17L47.98 5.17Q48.37 5.24 48.47 5.35L48.47 5.35L48.47 5.35Q48.58 5.46 48.58 5.54L48.58 5.54L48.58 5.54Q48.58 5.59 48.56 5.67L48.56 5.67L48.56 5.67Q48.54 5.75 48.51 5.85L48.51 5.85L48.51 5.85Q48.48 5.95 48.46 6.03L48.46 6.03L48.46 6.03Q48.44 6.12 48.44 6.15L48.44 6.15L48.44 6.15Q48.41 6.26 48.36 6.55L48.36 6.55L48.36 6.55Q48.31 6.85 48.24 7.17L48.24 7.17L48.24 7.17Q48.16 7.62 48.12 7.99L48.12 7.99L48.12 7.99Q48.09 8.36 48.09 8.78L48.09 8.78L48.09 8.78Q48.09 8.85 48.10 8.97L48.10 8.97L48.10 8.97Q48.10 9.10 48.12 9.23L48.12 9.23L48.12 9.23Q48.15 9.37 48.19 9.46L48.19 9.46L48.19 9.46Q48.24 9.56 48.33 9.58L48.33 9.58L48.33 9.58Q48.36 9.56 48.44 9.44L48.44 9.44L48.44 9.44Q48.52 9.32 48.66 8.96L48.66 8.96L48.66 8.96Q48.69 8.88 48.86 8.50L48.86 8.50L48.86 8.50Q49.03 8.12 49.24 7.45L49.24 7.45L49.24 7.45Q49.31 7.22 49.42 6.90L49.42 6.90L49.42 6.90Q49.53 6.58 49.66 6.13L49.66 6.13L49.66 6.13Q49.67 6.08 49.70 5.99L49.70 5.99L49.70 5.99Q49.73 5.89 49.77 5.81L49.77 5.81L49.77 5.81Q49.81 5.73 49.88 5.67L49.88 5.67L49.88 5.67Q49.95 5.61 50.06 5.61L50.06 5.61L50.06 5.61Q50.11 5.61 50.17 5.68L50.17 5.68L50.17 5.68Q50.23 5.74 50.23 6.03L50.23 6.03L50.23 6.03Q50.23 6.10 50.22 6.22L50.22 6.22L50.22 6.22Q50.20 6.34 50.15 6.59L50.15 6.59L50.15 6.59Q50.09 6.83 49.99 7.21L49.99 7.21L49.99 7.21Q49.88 7.59 49.70 8.18L49.70 8.18L49.70 8.18Q49.50 8.81 49.38 9.16L49.38 9.16L49.38 9.16Q49.27 9.52 49.20 9.66ZM48.33 4.55L48.33 4.55L48.33 4.55Q47.96 4.55 47.75 4.27L47.75 4.27L47.75 4.27Q47.53 4.00 47.53 3.72L47.53 3.72L47.53 3.72Q47.53 3.49 47.75 3.26L47.75 3.26L47.75 3.26Q48.01 3.04 48.20 3.04L48.20 3.04L48.20 3.04Q48.54 3.04 48.72 3.23L48.72 3.23L48.72 3.23Q48.90 3.43 48.90 3.79L48.90 3.79L48.90 3.79Q48.90 4.05 48.84 4.20L48.84 4.20L48.84 4.20Q48.78 4.35 48.68 4.43L48.68 4.43L48.68 4.43Q48.58 4.51 48.48 4.53L48.48 4.53L48.48 4.53Q48.38 4.55 48.33 4.55ZM53.87 5.53L53.87 5.53L53.87 5.53Q54.21 5.53 54.21 5.87L54.21 5.87L54.21 5.87Q54.21 6.23 54.11 6.64L54.11 6.64L54.11 6.64Q54.01 7.06 53.80 7.52L53.80 7.52L53.80 7.52Q53.40 8.43 52.71 8.43L52.71 8.43L52.71 8.43Q52.67 8.43 52.60 8.41L52.60 8.41L52.60 8.41Q52.53 8.39 52.33 8.32L52.33 8.32L52.33 8.32Q52.30 8.46 52.27 8.60L52.27 8.60L52.27 8.60Q52.23 8.75 52.19 8.92L52.19 8.92L52.19 8.95L52.19 8.95Q52.07 9.31 51.97 9.55L51.97 9.55L51.97 9.55Q51.87 9.79 51.79 9.93L51.79 9.93L51.79 9.93Q51.42 10.51 50.88 10.51L50.88 10.51L50.88 10.51Q50.20 10.51 49.88 9.84L49.88 9.84L49.88 9.84Q49.59 9.24 49.59 8.06L49.59 8.06L49.59 8.06Q49.59 6.66 49.81 6.12L49.81 6.12L49.81 6.03L49.81 6.03Q49.80 5.95 49.80 5.89L49.80 5.89L49.80 5.89Q49.80 5.82 49.80 5.77L49.80 5.77L49.80 5.75L49.80 5.75Q49.83 5.54 49.91 5.46L49.91 5.46L49.91 5.46Q49.92 5.40 49.95 5.28L49.95 5.28L49.95 5.28Q49.98 5.15 50.05 4.87L50.05 4.87L50.05 4.87Q50.09 4.66 50.18 4.54L50.18 4.54L50.18 4.54Q50.27 4.41 50.37 4.34L50.37 4.34L50.37 4.34Q50.47 4.27 50.57 4.25L50.57 4.25L50.57 4.25Q50.67 4.23 50.75 4.23L50.75 4.23L50.75 4.23Q51.18 4.23 51.67 4.59L51.67 4.59L51.67 4.59Q52.16 4.94 52.32 5.38L52.32 5.38L52.32 5.38Q52.33 5.43 52.35 5.54L52.35 5.54L52.35 5.54Q52.37 5.66 52.39 5.89L52.39 5.89L52.39 5.89Q52.40 6.12 52.42 6.51L52.42 6.51L52.42 6.51Q52.43 6.90 52.43 7.50L52.43 7.50L52.43 7.50Q52.50 7.56 52.60 7.56L52.60 7.56L52.60 7.56Q52.72 7.56 52.88 7.49L52.88 7.49L52.88 7.49Q53.05 7.42 53.20 7.10L53.20 7.10L53.20 7.10Q53.23 7.01 53.30 6.77L53.30 6.77L53.30 6.77Q53.38 6.52 53.51 5.95L53.51 5.95L53.51 5.95Q53.59 5.53 53.87 5.53ZM51.21 9.17L51.21 9.17L51.21 9.17Q51.42 8.71 51.48 8.45L51.48 8.45L51.48 8.45Q51.55 8.19 51.55 8.08L51.55 8.08L51.55 8.08Q51.55 7.88 51.52 7.62L51.52 7.62L51.52 7.62Q51.49 7.35 51.44 7.03L51.44 7.03L51.44 7.03Q51.35 6.58 51.33 6.41L51.33 6.41L51.33 6.41Q51.31 6.24 51.31 6.17L51.31 6.17L51.31 6.17Q51.31 6.10 51.31 6.02L51.31 6.02L51.31 6.02Q51.31 5.94 51.34 5.82L51.34 5.82L51.34 5.82Q51.35 5.71 51.35 5.63L51.35 5.63L51.35 5.63Q51.35 5.56 51.35 5.52L51.35 5.52L51.35 5.52Q51.35 5.32 51.28 5.26L51.28 5.26L51.28 5.26Q51.21 5.19 51.10 5.19L51.10 5.19L51.10 5.19Q51.09 5.21 51.05 5.26L51.05 5.26L51.05 5.26Q51.02 5.32 50.97 5.45L50.97 5.45L50.97 5.45Q50.92 5.59 50.85 5.82L50.85 5.82L50.85 5.82Q50.79 6.06 50.72 6.44L50.72 6.44L50.72 6.44Q50.61 7.03 50.55 7.47L50.55 7.47L50.55 7.47Q50.50 7.91 50.50 8.23L50.50 8.23L50.50 8.23Q50.50 8.43 50.51 8.67L50.51 8.67L50.51 8.67Q50.53 8.90 50.57 9.12L50.57 9.12L50.57 9.12Q50.62 9.34 50.71 9.48L50.71 9.48L50.71 9.48Q50.79 9.63 50.93 9.65L50.93 9.65L50.93 9.65Q50.96 9.62 51.02 9.53L51.02 9.53L51.02 9.53Q51.09 9.44 51.21 9.17Z"></path></g><!----><g data-v-423bf9ae="" id="e36d72e3-6342-4ce5-a499-76f6bc54bd73" transform="matrix(2.8125,0,0,2.8125,0,0)" stroke="none" fill="black"><circle cx="16" cy="16.021" r="8.066"></circle><path d="M32 0H0v32h32V0zM16 26.086c-5.551 0-10.066-4.516-10.066-10.065 0-5.55 4.516-10.066 10.066-10.066 5.55 0 10.065 4.516 10.065 10.066.001 5.55-4.515 10.065-10.065 10.065z"></path></g><!----><g data-v-423bf9ae="" id="475e77f8-e75d-41d3-b90b-ae2a7e76c92f" fill="black" transform="matrix(1.1315319015105485,0,0,1.1315319015105485,109.57001510407612,56.77513569739157)"><path d="M0.39 3.64L0.38 3.08L7.56 3.08L7.56 3.08Q7.57 4.14 7.63 5.28L7.63 5.28L7.08 5.30L7.08 5.30Q7.07 4.66 7.01 4.25L7.01 4.25L7.01 4.25Q6.97 3.89 6.92 3.80L6.92 3.80L6.92 3.80Q6.86 3.71 6.75 3.69L6.75 3.69L6.75 3.69Q6.65 3.68 6.06 3.68L6.06 3.68L3.68 3.68L3.68 3.68Q3.14 3.68 2.99 3.77L2.99 3.77L2.99 3.77Q2.87 3.86 2.87 4.33L2.87 4.33L2.87 6.28L2.87 6.28Q2.87 6.69 2.93 6.76L2.93 6.76L2.93 6.76Q2.99 6.84 3.33 6.84L3.33 6.84L5.45 6.84L5.45 6.84Q5.81 6.84 5.89 6.74L5.89 6.74L5.89 6.74Q5.97 6.64 5.97 6.17L5.97 6.17L5.97 5.63L6.49 5.63L6.49 8.97L5.97 8.97L5.97 8.26L5.97 8.26Q5.97 7.68 5.89 7.57L5.89 7.57L5.89 7.57Q5.81 7.46 5.48 7.46L5.48 7.46L3.38 7.46L3.38 7.46Q3.04 7.46 2.96 7.54L2.96 7.54L2.96 7.54Q2.87 7.63 2.87 7.89L2.87 7.89L2.87 11.20L2.87 11.20Q2.87 11.60 2.94 11.73L2.94 11.73L2.94 11.73Q3.02 11.87 3.29 11.87L3.29 11.87L4.22 11.87L4.22 12.41L0.63 12.41L0.63 11.87L1.04 11.87L1.04 11.87Q1.54 11.87 1.64 11.79L1.64 11.79L1.64 11.79Q1.74 11.70 1.74 11.33L1.74 11.33L1.74 4.24L1.74 4.24Q1.74 3.79 1.57 3.71L1.57 3.71L1.57 3.71Q1.43 3.64 0.39 3.64L0.39 3.64ZM16.01 3.64L15.62 3.64L15.63 3.08L18.85 3.08L18.85 3.08Q19.99 3.08 20.59 3.21L20.59 3.21L20.59 3.21Q21.23 3.37 21.70 3.75L21.70 3.75L21.70 3.75Q22.70 4.57 22.70 5.71L22.70 5.71L22.70 5.71Q22.70 6.43 22.23 7.04L22.23 7.04L22.23 7.04Q21.74 7.66 20.71 7.92L20.71 7.92L23.39 11.49L23.39 11.49Q23.70 11.87 23.99 11.87L23.99 11.87L24.60 11.87L24.62 12.41L22.59 12.41L19.60 8.10L19.43 8.10L19.43 8.10Q19.39 8.10 19.33 8.11L19.33 8.11L19.33 8.11Q19.28 8.11 19.26 8.11L19.26 8.11L19.26 8.11Q18.38 8.11 17.99 8.03L17.99 8.03L17.99 11.46L17.99 11.46Q17.99 11.76 18.13 11.81L18.13 11.81L18.13 11.81Q18.25 11.87 18.96 11.87L18.96 11.87L19.67 11.87L19.64 12.41L15.91 12.41L15.91 11.87L16.24 11.87L16.24 11.87Q16.70 11.87 16.77 11.81L16.77 11.81L16.77 11.81Q16.85 11.74 16.85 11.46L16.85 11.46L16.85 4.14L16.85 4.14Q16.85 3.82 16.66 3.73L16.66 3.73L16.66 3.73Q16.43 3.64 16.01 3.64L16.01 3.64ZM17.99 4.28L17.99 7.57L17.99 7.57Q18.17 7.70 18.88 7.71L18.88 7.71L18.88 7.71Q20.15 7.71 20.73 7.27L20.73 7.27L20.73 7.27Q21.32 6.84 21.32 5.92L21.32 5.92L21.32 5.92Q21.32 4.92 20.55 4.27L20.55 4.27L20.55 4.27Q19.79 3.64 18.41 3.64L18.41 3.64L18.41 3.64Q18.16 3.64 18.07 3.75L18.07 3.75L18.07 3.75Q17.99 3.84 17.99 4.28L17.99 4.28ZM32.96 3.64L32.38 3.64L32.39 3.08L35.90 3.08L35.90 3.64L35.67 3.64L35.67 3.64Q35.12 3.64 34.95 3.73L34.95 3.73L34.95 3.73Q34.82 3.81 34.82 4.28L34.82 4.28L34.82 11.22L34.82 11.22Q34.82 11.68 34.92 11.77L34.92 11.77L34.92 11.77Q35.03 11.87 35.57 11.87L35.57 11.87L36.11 11.87L36.13 12.41L32.55 12.41L32.53 11.87L32.89 11.87L32.89 11.87Q33.46 11.87 33.57 11.77L33.57 11.77L33.57 11.77Q33.68 11.67 33.68 11.25L33.68 11.25L33.68 4.14L33.68 4.14Q33.68 3.77 33.58 3.71L33.58 3.71L33.58 3.71Q33.47 3.64 32.96 3.64L32.96 3.64ZM43.88 3.64L43.87 3.08L51.08 3.08L51.08 3.08Q51.09 4.14 51.15 5.28L51.15 5.28L50.60 5.30L50.60 5.30Q50.59 4.66 50.53 4.25L50.53 4.25L50.53 4.25Q50.49 3.89 50.44 3.80L50.44 3.80L50.44 3.80Q50.38 3.71 50.26 3.69L50.26 3.69L50.26 3.69Q50.17 3.68 49.58 3.68L49.58 3.68L47.20 3.68L47.20 3.68Q46.66 3.68 46.51 3.77L46.51 3.77L46.51 3.77Q46.39 3.86 46.39 4.33L46.39 4.33L46.39 6.28L46.39 6.28Q46.39 6.69 46.44 6.76L46.44 6.76L46.44 6.76Q46.51 6.84 46.85 6.84L46.85 6.84L48.97 6.84L48.97 6.84Q49.33 6.84 49.41 6.73L49.41 6.73L49.41 6.73Q49.49 6.63 49.50 6.14L49.50 6.14L49.50 5.61L50.01 5.63L50.01 8.97L49.50 8.97L49.50 8.24L49.50 8.24Q49.50 7.66 49.42 7.57L49.42 7.57L49.42 7.57Q49.34 7.46 48.99 7.46L48.99 7.46L46.89 7.46L46.89 7.46Q46.56 7.46 46.47 7.54L46.47 7.54L46.47 7.54Q46.39 7.63 46.39 7.89L46.39 7.89L46.39 11.20L46.39 11.20Q46.39 11.57 46.47 11.67L46.47 11.67L46.47 11.67Q46.56 11.77 46.83 11.77L46.83 11.77L46.83 11.77Q49.75 11.75 50.28 11.69L50.28 11.69L50.28 11.69Q50.80 11.63 50.88 11.38L50.88 11.38L50.89 11.36L50.89 11.35L51.12 10.17L51.60 10.25L51.25 12.41L44.15 12.41L44.15 11.87L44.52 11.87L44.52 11.87Q45.08 11.87 45.16 11.80L45.16 11.80L45.16 11.80Q45.25 11.72 45.25 11.33L45.25 11.33L45.25 4.24L45.25 4.24Q45.25 3.82 45.10 3.73L45.10 3.73L45.10 3.73Q44.93 3.64 44.28 3.64L44.28 3.64L43.88 3.64ZM59.49 3.64L59.47 3.08L61.65 3.08L67.38 10.48L67.38 4.14L67.38 4.14Q67.38 3.81 67.23 3.72L67.23 3.72L67.23 3.72Q67.07 3.64 66.62 3.64L66.62 3.64L66.12 3.64L66.15 3.08L69.13 3.08L69.13 3.64L68.81 3.64L68.81 3.64Q68.35 3.64 68.20 3.75L68.20 3.75L68.20 3.75Q68.04 3.86 68.04 4.25L68.04 4.25L68.04 12.32L68.04 12.47L68.04 12.47Q68.04 12.52 68.03 12.57L68.03 12.57L68.03 12.57Q68.02 12.61 67.98 12.64L67.98 12.64L67.98 12.64Q67.97 12.65 67.92 12.65L67.92 12.65L67.72 12.65L67.66 12.65L67.63 12.65L67.61 12.64L67.61 12.64Q67.58 12.64 67.57 12.63L67.57 12.63L67.57 12.63Q67.55 12.61 67.55 12.60L67.55 12.60L67.55 12.60Q67.55 12.58 67.54 12.57L67.54 12.57L67.54 12.57Q67.51 12.54 67.48 12.50L67.48 12.50L67.48 12.50Q67.47 12.48 67.45 12.45L67.45 12.45L67.45 12.45Q67.43 12.41 67.42 12.40L67.42 12.40L61.31 4.56L61.38 11.22L61.38 11.22Q61.38 11.67 61.54 11.77L61.54 11.77L61.54 11.77Q61.70 11.87 62.41 11.87L62.41 11.87L62.65 11.87L62.65 12.41L59.71 12.41L59.71 11.87L60.14 11.87L60.14 11.87Q60.51 11.87 60.62 11.76L60.62 11.76L60.62 11.76Q60.72 11.66 60.72 11.25L60.72 11.25L60.72 3.80L60.58 3.64L59.49 3.64ZM76.91 3.64L76.87 3.08L80.65 3.08L80.65 3.08Q81.97 3.08 82.84 3.19L82.84 3.19L82.84 3.19Q83.66 3.29 84.35 3.69L84.35 3.69L84.35 3.69Q85.30 4.27 85.80 5.24L85.80 5.24L85.80 5.24Q86.30 6.21 86.30 7.39L86.30 7.39L86.30 7.39Q86.30 8.05 86.15 8.65L86.15 8.65L86.15 8.65Q86.00 9.29 85.61 9.98L85.61 9.98L85.61 9.98Q85.18 10.73 84.62 11.21L84.62 11.21L84.62 11.21Q83.99 11.76 83.02 12.08L83.02 12.08L83.02 12.08Q82.01 12.41 80.74 12.41L80.74 12.41L77.12 12.41L77.11 11.87L77.49 11.87L77.49 11.87Q78.00 11.87 78.11 11.79L78.11 11.79L78.11 11.79Q78.22 11.70 78.22 11.25L78.22 11.25L78.22 4.14L78.22 4.14Q78.22 3.77 78.12 3.71L78.12 3.71L78.12 3.71Q78.01 3.64 77.50 3.64L77.50 3.64L76.91 3.64ZM79.35 4.39L79.35 11.22L79.35 11.22Q79.35 11.67 79.52 11.77L79.52 11.77L79.52 11.77Q79.67 11.87 80.54 11.87L80.54 11.87L80.54 11.87Q81.59 11.87 82.39 11.61L82.39 11.61L82.39 11.61Q83.24 11.35 83.68 10.99L83.68 10.99L83.68 10.99Q84.17 10.58 84.48 10.05L84.48 10.05L84.48 10.05Q84.78 9.52 84.91 8.96L84.91 8.96L84.91 8.96Q85.03 8.41 85.03 7.82L85.03 7.82L85.03 7.82Q85.03 7.03 84.77 6.34L84.77 6.34L84.77 6.34Q84.50 5.65 83.97 5.05L83.97 5.05L83.97 5.05Q83.44 4.46 82.53 4.09L82.53 4.09L82.53 4.09Q81.61 3.73 80.45 3.73L80.45 3.73L79.93 3.73L79.93 3.73Q79.56 3.73 79.46 3.85L79.46 3.85L79.46 3.85Q79.35 3.99 79.35 4.39L79.35 4.39ZM94.24 10.04L94.24 10.04L94.73 9.98L94.92 10.85L94.92 10.85Q95.03 11.33 95.09 11.41L95.09 11.41L95.09 11.41Q95.16 11.49 95.57 11.64L95.57 11.64L95.57 11.64Q96.41 11.95 97.31 11.95L97.31 11.95L97.31 11.95Q98.10 11.95 98.64 11.49L98.64 11.49L98.64 11.49Q99.17 11.04 99.17 10.26L99.17 10.26L99.17 10.26Q99.17 9.65 98.71 9.21L98.71 9.21L98.71 9.21Q98.23 8.76 97.38 8.30L97.38 8.30L96.80 7.98L96.80 7.98Q96.06 7.55 95.83 7.36L95.83 7.36L95.83 7.36Q95.46 7.08 95.15 6.59L95.15 6.59L95.15 6.59Q94.84 6.10 94.84 5.46L94.84 5.46L94.84 5.46Q94.84 4.39 95.68 3.68L95.68 3.68L95.68 3.68Q96.52 2.97 97.63 2.97L97.63 2.97L97.63 2.97Q97.91 2.97 98.26 3.04L98.26 3.04L98.26 3.04Q98.46 3.08 98.79 3.17L98.79 3.17L99.03 3.25L99.03 3.25Q99.13 3.25 99.17 3.16L99.17 3.16L99.17 3.16Q99.22 3.05 99.22 2.98L99.22 2.98L99.24 2.88L99.72 2.85L99.93 5.41L99.42 5.43L99.30 4.18L99.30 4.18Q98.55 3.62 97.39 3.62L97.39 3.62L97.39 3.62Q96.75 3.62 96.24 4.05L96.24 4.05L96.24 4.05Q95.76 4.47 95.76 5.12L95.76 5.12L95.76 5.12Q95.76 5.72 96.22 6.17L96.22 6.17L96.22 6.17Q96.65 6.60 97.51 7.08L97.51 7.08L98.29 7.50L98.29 7.50Q99.24 8.03 99.77 8.59L99.77 8.59L99.77 8.59Q100.30 9.15 100.30 9.92L100.30 9.92L100.30 9.92Q100.30 10.99 99.45 11.76L99.45 11.76L99.45 11.76Q98.58 12.54 97.13 12.54L97.13 12.54L97.13 12.54Q96.56 12.54 96.06 12.41L96.06 12.41L96.06 12.41Q95.56 12.29 95.50 12.29L95.50 12.29L95.50 12.29Q95.25 12.29 95.25 12.58L95.25 12.58L95.27 12.76L94.79 12.80L94.79 12.80Q94.73 12.41 94.24 10.04ZM108.19 15.51L108.19 15.51L108.19 15.51Q108.19 15.31 108.39 15.31L108.39 15.31L108.39 15.31Q108.45 15.31 108.63 15.35L108.63 15.35L108.63 15.35Q109.06 15.45 109.15 15.46L109.15 15.46L109.15 15.46Q109.44 15.52 109.86 15.52L109.86 15.52L109.86 15.52Q110.84 15.52 111.62 14.92L111.62 14.92L111.62 14.92Q112.42 14.31 112.42 13.28L112.42 13.28L112.42 13.28Q112.42 12.78 112.25 12.40L112.25 12.40L112.25 12.40Q112.07 12.01 111.82 11.83L111.82 11.83L111.82 11.83Q111.58 11.66 111.36 11.56L111.36 11.56L111.36 11.56Q111.23 11.50 110.95 11.45L110.95 11.45L110.95 11.45Q110.91 11.44 110.84 11.43L110.84 11.43L110.84 11.43Q110.77 11.42 110.73 11.42L110.73 11.42L110.73 11.42Q110.65 11.41 110.53 11.41L110.53 11.41L110.53 11.41Q110.43 11.41 110.39 11.39L110.39 11.39L110.39 11.39Q110.35 11.38 110.29 11.32L110.29 11.32L110.29 11.32Q110.25 11.28 110.25 11.22L110.25 11.22L110.25 11.22Q110.25 11.10 110.38 11.03L110.38 11.03L110.38 11.03Q110.54 10.96 110.67 10.92L110.67 10.92L110.67 10.92Q110.84 10.88 111.08 10.72L111.08 10.72L111.08 10.72Q111.30 10.58 111.50 10.32L111.50 10.32L111.50 10.32Q111.88 9.79 111.88 9.10L111.88 9.10L111.88 9.10Q111.88 8.58 111.54 8.07L111.54 8.07L111.54 8.07Q111.22 7.58 110.53 7.58L110.53 7.58L110.53 7.58Q109.98 7.58 109.63 7.75L109.63 7.75L109.63 7.75Q109.26 7.94 109.09 8.06L109.09 8.06L109.09 8.06Q108.89 8.22 108.79 8.22L108.79 8.22L108.79 8.22Q108.62 8.22 108.63 8.00L108.63 8.00L108.63 8.00Q108.63 7.88 108.77 7.70L108.77 7.70L108.77 7.70Q108.89 7.53 109.18 7.27L109.18 7.27L109.18 7.27Q109.39 7.08 109.89 6.90L109.89 6.90L109.89 6.90Q110.35 6.73 110.91 6.73L110.91 6.73L110.91 6.73Q111.81 6.73 112.33 7.25L112.33 7.25L112.33 7.25Q112.90 7.78 112.90 8.65L112.90 8.65L112.90 8.65Q112.90 9.98 111.77 10.72L111.77 10.72L111.49 10.88L111.49 10.88Q111.56 10.89 111.72 10.92L111.72 10.92L111.72 10.92Q111.83 10.93 112.22 11.08L112.22 11.08L112.22 11.08Q112.62 11.24 112.88 11.46L112.88 11.46L112.88 11.46Q113.16 11.70 113.39 12.15L113.39 12.15L113.39 12.15Q113.63 12.63 113.63 13.19L113.63 13.19L113.63 13.19Q113.63 14.15 113.03 14.83L113.03 14.83L113.03 14.83Q112.42 15.50 111.61 15.82L111.61 15.82L111.61 15.82Q110.85 16.10 109.94 16.10L109.94 16.10L109.94 16.10Q109.29 16.10 108.74 15.97L108.74 15.97L108.74 15.97Q108.19 15.85 108.19 15.51ZM121.88 8.45L121.88 8.45L121.88 8.45Q121.88 6.34 123.13 4.80L123.13 4.80L123.13 4.80Q124.37 3.26 125.99 3.26L125.99 3.26L125.99 3.26Q126.20 3.26 126.72 3.40L126.72 3.40L126.72 3.40Q127.20 3.52 127.20 3.72L127.20 3.72L127.20 3.72Q127.20 3.89 127.00 3.89L127.00 3.89L126.97 3.88L126.97 3.88Q126.94 3.88 126.87 3.86L126.87 3.86L126.87 3.86Q126.81 3.85 126.74 3.83L126.74 3.83L126.74 3.83Q126.50 3.79 126.31 3.79L126.31 3.79L126.31 3.79Q125.60 3.79 124.93 4.18L124.93 4.18L124.93 4.18Q124.28 4.56 123.84 5.23L123.84 5.23L123.84 5.23Q123.39 5.91 123.25 6.44L123.25 6.44L123.25 6.44Q123.12 6.95 123.03 7.51L123.03 7.51L123.03 7.51Q122.95 8.07 122.93 8.09L122.93 8.09L122.93 8.09Q123.33 7.39 123.90 7.11L123.90 7.11L123.90 7.11Q124.49 6.82 125.02 6.82L125.02 6.82L125.02 6.82Q125.67 6.82 126.24 7.08L126.24 7.08L126.24 7.08Q126.76 7.33 127.00 7.75L127.00 7.75L127.00 7.75Q127.29 8.23 127.38 8.58L127.38 8.58L127.38 8.58Q127.49 9.00 127.50 9.39L127.50 9.39L127.50 9.39Q127.50 10.88 126.75 11.73L126.75 11.73L126.75 11.73Q126.03 12.57 124.89 12.57L124.89 12.57L124.89 12.57Q123.46 12.57 122.68 11.41L122.68 11.41L122.68 11.41Q121.88 10.23 121.88 8.45ZM123.03 9.11L123.03 9.11L123.03 9.11Q123.03 10.29 123.69 11.18L123.69 11.18L123.69 11.18Q124.35 12.07 125.10 12.07L125.10 12.07L125.10 12.07Q125.69 12.07 126.04 11.52L126.04 11.52L126.04 11.52Q126.40 10.96 126.40 9.99L126.40 9.99L126.40 9.99Q126.40 8.85 125.87 8.19L125.87 8.19L125.87 8.19Q125.34 7.53 124.53 7.53L124.53 7.53L124.53 7.53Q123.90 7.53 123.47 8.00L123.47 8.00L123.47 8.00Q123.03 8.48 123.03 9.11ZM136.88 11.74L136.88 11.74L136.88 11.74Q136.01 10.94 136.01 9.73L136.01 9.73L136.01 9.73Q136.01 8.51 136.83 7.59L136.83 7.59L136.83 7.59Q137.64 6.70 138.99 6.70L138.99 6.70L138.99 6.70Q140.19 6.70 141.05 7.49L141.05 7.49L141.05 7.49Q141.89 8.26 141.89 9.50L141.89 9.50L141.89 9.50Q141.89 10.73 141.06 11.64L141.06 11.64L141.06 11.64Q140.25 12.54 138.95 12.54L138.95 12.54L138.95 12.54Q137.74 12.54 136.88 11.74ZM136.69 9.60L136.69 9.60L136.69 9.60Q136.69 10.52 137.35 11.22L137.35 11.22L137.35 11.22Q138.00 11.92 139.00 11.92L139.00 11.92L139.00 11.92Q139.88 11.92 140.54 11.28L140.54 11.28L140.54 11.28Q141.21 10.62 141.21 9.66L141.21 9.66L141.21 9.66Q141.21 8.78 140.55 8.05L140.55 8.05L140.55 8.05Q139.90 7.33 138.92 7.33L138.92 7.33L138.92 7.33Q138.02 7.33 137.36 7.98L137.36 7.98L137.36 7.98Q136.69 8.63 136.69 9.60Z"></path></g></svg>